<?xml version="1.0" encoding="UTF-8"?>
<svg id="Camada_1" xmlns="http://www.w3.org/2000/svg" version="1.1" viewBox="0 0 1152 155.25">
  <!-- Generator: Adobe Illustrator 30.0.0, SVG Export Plug-In . SVG Version: 2.1.1 Build 123)  -->
  <defs>
    <style>
      .st0 {
        fill: #00589c;
      }

      .st1 {
        fill: #00984c;
      }

      .st2 {
        fill: #00a7fe;
      }
    </style>
  </defs>
  <path class="st1" d="M443.71,0c.78,1.24,2.85.75,4.11.76,38.14.39,109.27,7.97,140.48,30.28,2.77,1.98,5.35,4.47,7.56,7.02-3.07-1.19-5.58-3.71-8.49-5.35-48.86-27.54-139.7-28.24-195.01-26-68.86,2.78-149.52,15.37-215.3,35.64-29.83,9.19-97.83,33.5-103.27,68.83-2.81,18.26,7.55,29.15,21.4,38.84-17.72-1.8-36.01-5.01-53.04-10.24-15.92-4.9-35.26-12.29-42.15-28.56v-8.96c8.98-21.34,34.61-33.78,54.96-42.68C145.85,19.82,276.79,3.92,375.94.78l1.81-.78h65.96Z"/>
  <path class="st2" d="M715.63,13.66l374.57-.26c77.19,4.03,82.47,106.78,8.87,120.11h-388.06c-72.43-10.65-69.96-114.18,4.62-119.86ZM713.38,29.33c-54.42,7.6-52.48,83.77,2.04,89.34h378.48c55.27-5.67,56.03-83.16.75-89.54l-381.27.21Z"/>
  <path class="st0" d="M601.11,45.52c-4.32-1.9-8.17-4.61-12.47-6.61-22.47-10.44-52.54-15.87-77.19-18.67-82.35-9.37-184.76,1.41-260.87,34.85-36.73,16.14-102,55.43-56.45,99.4-23.64-3.62-53.71-8.51-73.39-22.82-47.11-34.26,39.61-70.56,64.56-79.63C255.9,26.38,339.08,15.14,414.1,12.68c41.19-1.35,82.77-.77,123.44,6.96,21.82,4.15,47.23,10.36,63.57,25.88Z"/>
  <path class="st0" d="M287.44,133.6c-1.1-.31-2.34-2.67-1.73-3.89,5.97-16.31,7.34-38.03,13.55-53.76.38-.95.77-2.25,1.62-2.86,1.64-1.17,13.46-1.54,15.04.81l12.76,38.06c1.21.17,1.5-.94,2.01-1.73,6.37-9.75,15.22-27.66,22.76-35.56.57-.6,2.37-2.28,2.96-2.28h11.99c.6,0,1.61,2.63,1.63,3.46-1.83,16.85-1.09,34.62-2.76,51.39-.14,1.36-1.13,6.36-2.61,6.36h-14.24c-.66,0-2.11-3.14-1.92-4.12l2.29-24.99-17.98,27.24c-2.43,2.75-11.57,2.88-13.35-.14l-9.51-27.85c-2.26,7.89-3.15,18.5-6.14,25.99-.38.96-2.06,3.88-2.85,3.88-3.02,0-11.34.61-13.49,0Z"/>
  <path class="st0" d="M432.47,133.6l-.7-3.98,9.36-55.69c1.76-2.35,12.44-2.28,14.96-.05l21.34,31.36c1.54-8.99,1.75-19.81,3.94-28.55.33-1.33,1.63-4.29,3.18-4.29h13.49c2.66,0,1.98,4.48,1.86,6.34-.85,13.05-4.77,36.1-7.69,49.06-.54,2.4-1.01,5.98-3.93,6.53-3.21.61-7.52.33-10.13-1.83-6.07-5.03-16.56-22.72-21.58-30.01-.53-.77-.75-1.93-2-1.74-1.73,10.75-1.89,22.88-6,32.85h-16.11Z"/>
  <path class="st0" d="M560.9,83.11c17.8-18.25,58.84-14.71,57.48,16.56-1.09,24.97-25.11,40.09-48.77,34.33-24-5.84-23.45-35.77-8.71-50.89ZM584.41,83.77c-12.13,2.51-19.36,31.4-8.29,38.51,8.05,5.17,16.36-3.31,19.35-10.33,4.24-9.95,4.8-31.47-11.06-28.18Z"/>
  <path class="st0" d="M267.2,133.6c-3.86-1.06-2.63-11.48-5.37-14.22-3.59.69-11.58-1-14.5.4s-4.57,12.11-8.95,13.48c-3.16.98-10.5.27-13.9-.43-1.03-.21-1.26.57-1.16-1.12l29.68-56.29c2.76-4.68,8.52-4.3,13.49-3.83,3.48.33,4.13,1.27,5.23,4.5,5.58,16.48,6.88,37.46,11.96,54.43.33.87-1.05,3.06-1.5,3.06-3.37,0-12.55.67-14.99,0ZM260.72,109.61c1.08-1.73-1.85-12.77-1.76-15.57-1.12,2.37-7.04,12.93-6.92,14.56.19,2.66,7.99,2.12,8.69,1.01Z"/>
  <path class="st0" d="M369.13,133.6c-.67-.18-1.49-1.46-.8-2.27l30.82-57.4c1.95-2.1,9.79-1.87,12.75-1.57s3.66.64,4.63,3.6c5.56,16.86,6.96,37.86,12.15,55.15.35.79-.51,2.5-1.09,2.5h-16.49c-2.29,0-1.65-12.29-4.87-13.81-2.08-.98-12.22-.7-14.23.76-2.86,2.08-5.52,13.05-8.63,13.05s-11.89.64-14.24,0ZM405.49,110.47l-.1-6.25-2.14-10.17c-1.04,5.84-5.98,10.37-6.01,16.41h8.25Z"/>
  <path class="st0" d="M553.14,85.83c-14.29-7.28-27.79-.6-31.27,14.76-4.52,19.98,7.91,28.56,26.02,20.32-.9,11.31-5.32,13.66-16.11,14.17-20.82.98-33.92-12.3-30.16-33.01s23.55-32.61,44.31-29.58c11.21,1.63,8.98,3.44,7.21,13.34Z"/>
  <path class="st2" d="M742.02,58.97c-.35.35-5.29-.56-5.26.38l6.38,23.51,10.94-39.49,14.81.03,11.35,38.7,6-22.75c.04-.87-5.26-.12-5.26-.38v-15.67h29.23v15.67c0,.28-4.62-.61-5.33.43l-12.62,44.01h-21.05s-10.08-28.02-10.08-28.02l-9.29,27.92c-.78,1.11-18.06.16-20.97.35l-12.76-44.24c-.77-1.08-5.33-.15-5.33-.44v-15.67h28.11c.08,0,1.12,1.04,1.12,1.12,0,2.08.52,14.04,0,14.55Z"/>
  <path class="st2" d="M865.69,103.75c-.23-.23.17-3.57,0-4.48-14.29,10.67-36,7.1-45.58-7.97-16.49-25.94,7.99-56.56,37.18-47.47,3.13.97,5.44,2.88,8.41,3.94.17-.64-.22-4.47,0-4.47h23.23v15.67c0,.37-7.5-.37-7.5,0v29.11c0,.37,7.5-.37,7.5,0v15.67c-3.03-.62-22.41.82-23.23,0ZM863.37,73.81c0-8.27-6.74-14.98-15.04-14.98s-15.04,6.71-15.04,14.98,6.74,14.98,15.04,14.98,15.04-6.71,15.04-14.98Z"/>
  <path class="st2" d="M1088.29,89.57c.36.36,7.5-.37,7.5,0v14.18h-25.48v-36.95c0-3.17-4.06-7.74-7.29-8.41-17.56-3.61-12.21,19.58-12.95,29.69,1.5.1,8.25-.6,8.25,1.12v13.44c0,.08-1.04,1.12-1.12,1.12h-32.6v-15.67c0-.3,6,.3,6,0v-29.11c0-.3-6,.3-6,0v-15.67h23.23c.22,0-.17,3.83,0,4.48,12.66-9.43,31.35-6.14,38.36,8.45.35.74,2.11,5.07,2.11,5.36,0,3.77-.99,27,0,27.99Z"/>
  <path class="st2" d="M926.4,43.29v15.67c-1.19.35-4.89-.99-4.42,1.03,1,4.31,5.37,16.34,7.39,20.27.36.7.47,1.77,1.52,1.84l8.24-22.77c-.61-.86-5.24-.1-5.24-.36v-14.55c0-.08,1.04-1.12,1.12-1.12h28.11v15.67c-1.65.2-4.43-.68-5.62.74l-16.83,43.7-19.92.39-17.5-44.39c-.74-1.06-5.33-.15-5.33-.44v-15.67h28.48Z"/>
  <path class="st2" d="M1008.09,43.29v15.67c0,.37-7.5-.37-7.5,0v29.11c0,.37,7.5-.37,7.5,0v15.67h-32.98v-15.67c0-.3,6,.3,6,0v-29.11c0-.3-6,.3-6,0v-15.67h32.98Z"/>
</svg>