<svg id="Icons" height="512" viewBox="0 0 60 60" width="512" xmlns="http://www.w3.org/2000/svg"><rect fill="#25a3da" height="38" rx="4" width="58" x="1" y="10"/><circle cx="47" cy="41" fill="#ec3a48" r="3"/><rect fill="#fccb55" height="10" rx="2" width="12" x="5" y="15"/><circle cx="52" cy="41" fill="#fccb55" r="3"/><g fill="#295474"><path d="m46 24a1 1 0 0 1 -.648-1.761 1.509 1.509 0 0 0 0-2.478 1 1 0 0 1 1.3-1.522 3.5 3.5 0 0 1 0 5.522.991.991 0 0 1 -.652.239z"/><path d="m49 27a1 1 0 0 1 -.729-1.684 6.251 6.251 0 0 0 0-8.632 1 1 0 1 1 1.458-1.368 8.249 8.249 0 0 1 0 11.368 1 1 0 0 1 -.729.316z"/><path d="m52 29a1 1 0 0 1 -.706-1.709 8.666 8.666 0 0 0 0-12.582 1 1 0 0 1 1.412-1.418 10.668 10.668 0 0 1 0 15.418 1 1 0 0 1 -.706.291z"/><path d="m11 44h-5a1 1 0 0 1 0-2h5a1 1 0 0 1 0 2z"/><path d="m14 34h-6a1 1 0 0 1 0-2h6a1 1 0 0 1 0 2z"/><path d="m24 34h-6a1 1 0 0 1 0-2h6a1 1 0 0 1 0 2z"/><path d="m34 34h-6a1 1 0 0 1 0-2h6a1 1 0 0 1 0 2z"/><path d="m44 34h-6a1 1 0 0 1 0-2h6a1 1 0 0 1 0 2z"/><path d="m20 44h-5a1 1 0 0 1 0-2h5a1 1 0 0 1 0 2z"/><path d="m23 38h-4a1 1 0 0 1 0-2h4a1 1 0 0 1 0 2z"/><path d="m28 38h-1a1 1 0 0 1 0-2h1a1 1 0 0 1 0 2z"/><path d="m33 38h-1a1 1 0 0 1 0-2h1a1 1 0 0 1 0 2z"/></g><path d="m10 25v-3h7v-2h-3v-5h-2v5h-2v-5h-2v5h-3v2h3v3z" fill="#e2b550"/></svg>